<?xml version="1.0" encoding="utf-8"?>
<!-- Generator: Adobe Illustrator 18.1.0, SVG Export Plug-In . SVG Version: 6.00 Build 0)  -->
<!DOCTYPE svg PUBLIC "-//W3C//DTD SVG 1.1//EN" "http://www.w3.org/Graphics/SVG/1.1/DTD/svg11.dtd">
<svg version="1.1" id="Layer_1" xmlns="http://www.w3.org/2000/svg" xmlns:xlink="http://www.w3.org/1999/xlink" x="0px" y="0px"
	 viewBox="0 0 185 100.5" enable-background="new 0 0 185 100.5" xml:space="preserve">
<rect x="68.4" y="72.5" width="47.7" height="1.3"/>
<g>
	<path d="M30.1,57.3h1.8v3.5l3.3-3.5h2.1L34,60.7l3.4,4.6h-2.1l-2.5-3.4l-0.9,1v2.5h-1.8V57.3z"/>
	<path d="M40.9,61.4L40.9,61.4c0-2.3,1.8-4.2,4.3-4.2c2.5,0,4.3,1.8,4.3,4.1v0c0,2.3-1.8,4.2-4.3,4.2C42.7,65.5,40.9,63.7,40.9,61.4
		z M47.6,61.4L47.6,61.4c0-1.4-1-2.6-2.4-2.6c-1.4,0-2.4,1.1-2.4,2.5v0c0,1.4,1,2.5,2.4,2.5C46.6,63.9,47.6,62.7,47.6,61.4z"/>
	<path d="M56,59h-2.4v-1.6h6.7V59h-2.4v6.4H56V59z"/>
	<path d="M64.3,64.2l1-1.3c0.7,0.6,1.5,1,2.4,1c0.7,0,1.2-0.3,1.2-0.8v0c0-0.4-0.3-0.7-1.6-1c-1.6-0.4-2.7-0.9-2.7-2.5v0
		c0-1.5,1.2-2.4,2.8-2.4c1.2,0,2.2,0.4,3,1l-0.9,1.3c-0.7-0.5-1.4-0.8-2.1-0.8s-1,0.3-1,0.7v0c0,0.5,0.3,0.7,1.7,1.1
		c1.6,0.4,2.6,1,2.6,2.4v0c0,1.6-1.2,2.5-3,2.5C66.5,65.5,65.3,65.1,64.3,64.2z"/>
	<path d="M75.3,61.4L75.3,61.4c0-2.3,1.8-4.2,4.3-4.2c2.5,0,4.3,1.8,4.3,4.1v0c0,2.3-1.8,4.2-4.3,4.2C77.1,65.5,75.3,63.7,75.3,61.4
		z M82,61.4L82,61.4c0-1.4-1-2.6-2.4-2.6c-1.4,0-2.4,1.1-2.4,2.5v0c0,1.4,1,2.5,2.4,2.5C81,63.9,82,62.7,82,61.4z"/>
	<path d="M88.9,57.3h3.3c1.9,0,3.1,1.1,3.1,2.8v0c0,1.9-1.4,2.8-3.3,2.8h-1.3v2.4h-1.8V57.3z M92,61.4c0.9,0,1.4-0.5,1.4-1.2v0
		c0-0.8-0.6-1.2-1.4-1.2h-1.4v2.5H92z"/>
	<path d="M99.6,61.4L99.6,61.4c0-2.3,1.8-4.2,4.3-4.2c2.5,0,4.3,1.8,4.3,4.1v0c0,2.3-1.8,4.2-4.3,4.2
		C101.4,65.5,99.6,63.7,99.6,61.4z M106.3,61.4L106.3,61.4c0-1.4-1-2.6-2.4-2.6c-1.4,0-2.4,1.1-2.4,2.5v0c0,1.4,1,2.5,2.4,2.5
		C105.3,63.9,106.3,62.7,106.3,61.4z"/>
	<path d="M113.1,61.9v-4.6h1.8v4.6c0,1.3,0.7,2,1.7,2c1.1,0,1.7-0.7,1.7-1.9v-4.6h1.8v4.5c0,2.4-1.4,3.6-3.5,3.6
		S113.1,64.3,113.1,61.9z"/>
	<path d="M125.3,57.3h1.8v6.4h4v1.6h-5.8V57.3z"/>
	<path d="M135.1,61.4L135.1,61.4c0-2.3,1.8-4.2,4.3-4.2s4.3,1.8,4.3,4.1v0c0,2.3-1.8,4.2-4.3,4.2C136.8,65.5,135.1,63.7,135.1,61.4z
		 M141.8,61.4L141.8,61.4c0-1.4-1-2.6-2.4-2.6c-1.4,0-2.4,1.1-2.4,2.5v0c0,1.4,1,2.5,2.4,2.5S141.8,62.7,141.8,61.4z"/>
	<path d="M148,64.2l1-1.3c0.7,0.6,1.5,1,2.4,1c0.7,0,1.2-0.3,1.2-0.8v0c0-0.4-0.3-0.7-1.6-1c-1.6-0.4-2.7-0.9-2.7-2.5v0
		c0-1.5,1.2-2.4,2.8-2.4c1.2,0,2.2,0.4,3,1l-0.9,1.3c-0.7-0.5-1.4-0.8-2.1-0.8c-0.7,0-1,0.3-1,0.7v0c0,0.5,0.3,0.7,1.7,1.1
		c1.6,0.4,2.6,1,2.6,2.4v0c0,1.6-1.2,2.5-3,2.5C150.2,65.5,149,65.1,148,64.2z"/>
</g>
<rect x="11.7" y="13.9" fill="none" stroke="#000000" stroke-width="2" stroke-miterlimit="10" width="161.1" height="72.7"/>
<g>
	<path d="M43.5,51.1V30.3h-4.3v-3.5h12.1v3.5h-4.3v20.8H43.5z"/>
	<path d="M61.8,26.9h3.5l4.3,8.7l4.3-8.7h3.5L71.3,39v12.1h-3.5V39L61.8,26.9z"/>
	<path d="M87.9,51.1V26.9h3.5v20.8h8.7v3.5H87.9z"/>
	<path d="M110.6,51.1V26.9h12.1v3.5H114v6.9h5.2v3.5H114v6.9h8.7v3.5H110.6z"/>
	<path d="M133.2,51.1V26.9h9.3l2.8,2.8v8.3l-1,1l1,1v11.1h-3.5V40.7h-5.2v10.4H133.2z M136.7,37.2h5.2v-6.9h-5.2V37.2z"/>
</g>
</svg>
